<svg preserveAspectRatio="xMidYMid meet" viewBox="0 0 200 200" xmlns="http://www.w3.org/2000/svg" data-type="color" role="img"><defs><style>#comp-kkcv117g svg [data-color="1"] {fill: #008AFC;}</style></defs>
    <g>
        <path d="M139.6 61.7C128.4 48 111.4 39.2 92.3 39h-.6c-33.7.3-61.1 27.7-61.1 61.5h15.1c.1 7.5 1.6 14.9 4.4 21.8 6 1.8 12.4 2.4 18.6 1.6-4.7-7.3-7.1-15.8-7.1-24.4h-15c.5-24.6 20.7-44.5 45.5-44.6 9.8 0 19.4 3.3 27.3 9.2 6.5-1.9 13.4-2.7 20.2-2.4z" fill="#005e7c" data-color="1"></path>
        <path d="M168.9 99.5h-15.7c-.1-6.8-1.3-13.6-3.7-20.1-5.9-1.8-12.1-2.3-18.2-1.7 4 6.9 6.1 14.7 6.1 22.7H153c-.5 24.7-20.8 44.6-45.6 44.7-9.1 0-18-2.7-25.5-7.8-5.9 1.8-12.1 2.8-18.3 2.8-.8 0-1.6 0-2.4-.1 11.3 12.8 27.8 20.9 46.1 20.9h.2c33.8 0 61.4-27.5 61.4-61.4z" fill="#005e7c" data-color="1"></path>
        <path d="M149.7 79.4c7.2 2.2 13.8 6.1 19.1 11.4L180 79.6a61.122 61.122 0 0 0-40.4-17.9c-6.8-.3-13.7.4-20.3 2.3-10 2.9-19.1 8.2-26.4 15.6l11.2 11.2c7.6-7.6 17.3-12 27.3-13.1 6.2-.6 12.4 0 18.3 1.7z" fill="#1dc870" data-color="2"></path>
        <path d="M50.2 122.3c-7.1-2.1-13.6-6-19-11.4L20 122.1c11.1 11.1 25.6 17.4 41.2 18 .8 0 1.6.1 2.4.1 6.3 0 12.5-.9 18.3-2.8 9.4-2.9 18.1-8.1 25.2-15.3l-11.2-11.2c-7.4 7.4-16.8 11.9-27.1 13.1-1.8.2-3.5.3-5.3.3-4.5 0-9-.7-13.3-2z" fill="#1dc870" data-color="2"></path>
    </g>
</svg>
